<svg width="201" height="200" viewBox="0 0 201 200" fill="none" xmlns="http://www.w3.org/2000/svg">
<circle cx="100.5" cy="100" r="100" fill="#18443C"/>
<path d="M79.6739 101.436C85.5255 101.436 91.1356 103.76 95.2726 107.897C99.4091 112.033 101.733 117.643 101.734 123.49V123.494C101.726 129.342 99.4014 134.947 95.2648 139.084C91.1281 143.217 85.5218 145.545 79.67 145.549L79.6739 145.55C73.8225 145.55 68.2132 143.226 64.0763 139.089C59.9396 134.952 57.6153 129.342 57.6153 123.49C57.6154 117.643 59.9397 112.03 64.0763 107.893C68.2129 103.756 73.8261 101.432 79.6739 101.436ZM110.122 48.0255C112.505 47.8107 114.849 48.9515 117.286 51.5138C117.606 51.8457 117.927 52.1936 118.232 52.5294C119.403 53.8106 120.513 55.0225 121.896 55.6241C123.161 56.1788 124.665 56.2335 126.255 56.2882C126.794 56.3038 127.349 56.3273 127.903 56.3663C131.302 56.6085 133.708 57.8624 134.88 59.9952C136.762 63.4561 134.388 67.7248 131.099 69.6974C129.278 70.7872 127.36 70.4239 125.825 70.1349C124.404 69.8693 123.481 69.7443 122.739 70.1739C121.509 70.9062 120.305 72.2228 119.897 73.5997C120.029 73.5675 120.162 73.5363 120.295 73.503V73.5069C121.127 73.3196 121.955 73.8313 122.162 74.6593C122.369 75.4872 121.881 76.3273 121.061 76.5577C120.931 76.5903 120.801 76.6207 120.672 76.6525C121.112 77.1704 121.666 77.6843 122.235 78.214C122.692 78.6358 123.165 79.0734 123.603 79.5343C124.727 80.745 125.9 81.9241 127.032 83.0646C129.962 86.0097 132.978 89.0531 135.392 92.7989C138.032 96.9005 142.032 103.097 143.579 111.722C143.911 112.801 146.204 120.832 144.243 131.308C142.31 141.526 133.56 143.605 122.904 143.605C120.572 143.605 118.15 143.503 115.69 143.37L98.4786 143.421L98.4747 143.417C97.631 143.39 96.9591 142.694 96.9591 141.847C96.9591 140.999 97.631 140.304 98.4747 140.273L115.733 140.222H115.826C131.279 141.077 139.436 139.839 141.147 130.722C143.066 120.495 140.584 112.683 140.561 112.581C140.537 112.511 140.518 112.44 140.506 112.37C139.186 104.933 136.084 99.6749 132.752 94.503C130.518 91.0344 127.744 88.2374 124.807 85.2843C123.658 84.1282 122.463 82.9287 121.307 81.6827C120.959 81.3117 120.549 80.9326 120.111 80.5304C119.127 79.6211 118.052 78.6272 117.356 77.379C113.989 78.0225 110.763 78.3429 107.49 78.3429C105.319 78.3305 103.152 78.1942 100.997 77.9396C99.9968 79.6754 98.4267 81.2547 97.9581 81.6984C97.4816 82.2061 96.9697 82.7454 96.3956 83.3468L96.3644 83.378C96.2622 83.4758 88.1432 91.3694 85.8917 97.3185V97.3146C85.5675 98.1036 84.6769 98.4865 83.88 98.1857C83.0871 97.8848 82.673 97.0059 82.9503 96.2052C85.4231 89.67 93.6062 81.666 94.1612 81.131C94.7354 80.5451 95.2393 80.0137 95.7003 79.5216L95.7667 79.4552C96.3076 78.9392 96.9924 78.1859 97.5685 77.4298C97.4824 77.4144 97.3957 77.4016 97.3097 77.3859C96.4779 77.2061 95.9389 76.4013 96.087 75.5694C96.2355 74.7336 97.0207 74.1673 97.8605 74.2843C98.1539 74.3367 98.4462 74.3849 98.7364 74.4327C98.6136 73.2988 97.9969 72.0992 96.9972 71.1427C96.5668 70.7523 94.2391 70.8615 93.1183 70.92C91.7316 70.9903 90.4229 71.0606 89.4073 70.8068C85.7903 69.9044 83.4581 67.9043 82.6612 65.0255C82.1263 63.092 82.5676 61.0606 83.9034 59.2989C85.4815 57.2171 88.0168 55.9201 90.5245 55.9083C91.9307 55.9083 93.259 56.2052 94.5558 56.4943C96.2511 56.8732 97.8566 57.2325 99.2316 56.7755C100.857 56.2442 102.083 54.6505 103.38 52.9552C105.036 50.7756 106.95 48.2911 110.122 48.0255ZM79.6739 104.58C74.6546 104.58 69.8457 106.572 66.2989 110.119C62.7521 113.666 60.76 118.475 60.7599 123.494C60.7599 128.51 62.7523 133.319 66.2989 136.865C69.8457 140.412 74.6546 142.404 79.6739 142.404C84.6895 142.404 89.4982 140.412 93.045 136.865C96.5919 133.318 98.5841 128.51 98.5841 123.494C98.5762 118.479 96.5801 113.675 93.0372 110.132C89.4904 106.589 84.6862 104.593 79.6749 104.589L79.6739 104.58ZM79.6739 137.855H79.67L79.672 137.854L79.6739 137.855ZM79.6739 109.187C80.5214 109.187 81.2167 109.859 81.2482 110.706V112.671C83.3262 113.209 85.0047 114.773 85.671 116.843C85.9052 117.659 85.448 118.519 84.6398 118.776C83.8274 119.038 82.9562 118.608 82.6749 117.804C82.3117 116.679 81.3467 115.847 80.1749 115.659C79.003 115.468 77.8272 115.956 77.128 116.913C76.4288 117.87 76.3273 119.14 76.8663 120.194C77.4015 121.253 78.4875 121.917 79.6749 121.917C83.1514 121.917 85.9718 124.737 85.9718 128.214C85.9717 131.15 83.9637 133.614 81.2482 134.313V136.284L81.2442 136.28C81.2442 137.151 80.5423 137.853 79.672 137.854C78.8019 137.852 78.0997 137.147 78.0997 136.28V134.312C76.2141 133.827 74.6251 132.486 73.8585 130.636C73.546 129.835 73.9288 128.937 74.7218 128.609C75.5108 128.281 76.4171 128.644 76.7648 129.425C77.2059 130.489 78.1909 131.222 79.3331 131.346C79.4439 131.321 79.558 131.308 79.6739 131.308C79.7897 131.308 79.9043 131.322 80.0157 131.347C80.9334 131.247 81.7731 130.75 82.296 129.964C82.9404 128.999 82.9989 127.753 82.4523 126.73C81.9015 125.706 80.8349 125.066 79.6749 125.066C77.3039 125.066 75.1359 123.733 74.0616 121.62C72.9874 119.511 73.1905 116.972 74.5851 115.058C75.4615 113.858 76.712 113.03 78.0997 112.671V110.706C78.1312 109.859 78.8265 109.187 79.6739 109.187ZM113.37 125.109C114.241 125.11 114.948 125.813 114.948 126.68V130.484C114.96 130.91 114.803 131.324 114.507 131.632C114.21 131.94 113.8 132.112 113.374 132.112C112.944 132.112 112.538 131.941 112.241 131.632C111.945 131.323 111.784 130.91 111.8 130.484V126.68C111.8 126.266 111.964 125.862 112.261 125.569C112.554 125.273 112.956 125.106 113.37 125.109ZM125.386 120.601C125.804 120.601 126.206 120.765 126.499 121.062C126.796 121.358 126.96 121.757 126.96 122.175V130.484C126.976 130.909 126.815 131.323 126.519 131.632C126.222 131.941 125.816 132.112 125.386 132.112C124.96 132.112 124.55 131.941 124.253 131.632C123.956 131.323 123.8 130.909 123.816 130.484V122.175C123.816 121.757 123.98 121.358 124.276 121.062C124.569 120.765 124.972 120.601 125.386 120.601ZM119.378 95.1788C119.796 95.1789 120.198 95.3429 120.495 95.6398L131.507 106.656L131.584 106.738C131.968 107.185 132.074 107.814 131.843 108.367C131.601 108.953 131.026 109.336 130.394 109.336H126.964L126.96 115.539C126.929 116.387 126.233 117.058 125.386 117.058C124.538 117.058 123.843 116.387 123.816 115.539V107.766C123.812 107.348 123.98 106.945 124.276 106.652C124.569 106.356 124.972 106.192 125.386 106.192H126.593L119.382 98.9767L112.171 106.192H113.37C113.788 106.192 114.191 106.356 114.484 106.652C114.78 106.945 114.948 107.348 114.948 107.766V120.524C114.96 120.949 114.804 121.363 114.507 121.672C114.21 121.98 113.8 122.152 113.374 122.152C112.945 122.152 112.538 121.981 112.241 121.672C111.945 121.363 111.784 120.949 111.8 120.524V109.335H108.37C107.734 109.339 107.159 108.956 106.913 108.366C106.671 107.78 106.808 107.101 107.257 106.651L118.27 95.6359V95.6398C118.566 95.343 118.964 95.1788 119.378 95.1788ZM79.6739 115.62H79.67L79.672 115.619L79.6739 115.62ZM75.7941 73.753C76.2197 73.753 76.63 73.929 76.9269 74.2335C77.2236 74.542 77.3799 74.9564 77.3644 75.3859V85.5587H81.1534C81.7862 85.5587 82.3604 85.9415 82.6026 86.5314C82.8486 87.1172 82.712 87.7932 82.2628 88.2462L70.4737 100.034C70.1808 100.327 69.7785 100.491 69.3644 100.487C68.9465 100.487 68.5479 100.323 68.255 100.026L56.462 88.2452C56.0131 87.7921 55.8761 87.1161 56.1183 86.5304C56.3644 85.9408 56.9388 85.5578 57.5753 85.5577H61.3566V75.3859C61.3567 74.515 62.0638 73.8079 62.9347 73.8077C63.8018 73.8077 64.5048 74.5149 64.505 75.3859V87.1359L64.4962 87.2921C64.4126 88.0802 63.744 88.6944 62.9347 88.6944H61.3722L69.3644 96.6866L77.3566 88.6944H75.7941C74.927 88.6943 74.2237 87.9951 74.2198 87.1319V75.3859C74.2043 74.9563 74.3645 74.542 74.6612 74.2335C74.958 73.9289 75.3645 73.7531 75.7941 73.753ZM110.412 51.1515C108.611 51.3038 107.337 52.96 105.864 54.878C104.392 56.796 102.739 58.9406 100.2 59.7609C98.0052 60.4872 95.9033 60.0186 93.8526 59.5655C92.6809 59.2999 91.5713 59.0538 90.5167 59.0538C89.0012 59.054 87.3799 59.9016 86.3995 61.2023C85.9776 61.7571 85.3215 62.8861 85.6847 64.1866C86.169 65.9443 87.6732 67.1358 90.1612 67.7569C90.7159 67.8975 91.8997 67.8351 92.9425 67.7804C95.2979 67.6632 97.7316 67.5344 99.1495 68.8624C100.92 70.5653 101.906 72.749 101.895 74.8702C102.883 74.9795 103.858 75.0601 104.824 75.1124C105.015 72.2652 103.882 69.9277 101.162 67.4562V67.4523C100.6 66.8546 100.592 65.921 101.147 65.3116C101.701 64.7062 102.635 64.6282 103.279 65.1359C105.47 67.1273 108.229 70.2713 107.97 75.1808C108.712 75.1727 109.453 75.1475 110.194 75.1046C110.13 72.983 110.328 69.5017 111.991 67.0851V67.0812C112.491 66.3899 113.452 66.2218 114.159 66.7062C114.862 67.1905 115.05 68.1515 114.585 68.8663C113.591 70.307 113.291 72.733 113.33 74.8204C114.416 74.6868 115.51 74.5164 116.619 74.3087C116.742 71.3924 118.927 68.7898 121.143 67.4679C122.963 66.3899 124.877 66.7531 126.416 67.0421C127.83 67.3077 128.74 67.4483 129.494 66.9952C131.502 65.7921 133.076 63.2373 132.127 61.4952C131.299 59.9757 129.001 59.5929 127.692 59.4991C127.197 59.4601 126.693 59.4444 126.162 59.4288C124.346 59.3663 122.467 59.2958 120.654 58.503C118.662 57.6359 117.275 56.1202 115.932 54.6515C115.619 54.3157 115.33 53.9951 115.029 53.6749C113.315 51.8743 111.764 51.0267 110.412 51.1515ZM62.9357 61.2296C63.8028 61.2296 64.506 61.9327 64.506 62.8038V69.7296C64.5058 70.5967 63.8027 71.2999 62.9357 71.2999C62.0647 71.2999 61.3577 70.5966 61.3575 69.7296V62.8038C61.3575 61.9328 62.0646 61.2297 62.9357 61.2296ZM75.7989 61.2843C76.6466 61.2843 77.3419 61.9562 77.3732 62.8038V68.6202C77.3732 69.0382 77.2052 69.4366 76.9083 69.7335C76.6153 70.0304 76.213 70.1944 75.7989 70.1944H75.795C75.381 70.1944 74.9786 70.0303 74.6857 69.7335C74.3888 69.4366 74.2247 69.0382 74.2247 68.6202V62.8038C74.256 61.9562 74.9514 61.2844 75.7989 61.2843Z" fill="#F2B034"/>
</svg>
