<svg width="201" height="200" viewBox="0 0 201 200" fill="none" xmlns="http://www.w3.org/2000/svg">
<circle cx="100.5" cy="100" r="100" fill="#18443C"/>
<path fill-rule="evenodd" clip-rule="evenodd" d="M101.499 52C109.265 52 115.561 58.2969 115.561 66.062C115.561 66.3784 115.546 66.6909 115.526 67.0034C116.733 68.1557 117.796 69.4526 118.69 70.8706C118.69 70.8315 118.687 70.7886 118.687 70.7495C118.687 64.7104 123.585 59.8115 129.625 59.8115C135.664 59.8115 140.563 64.7099 140.563 70.7495C140.563 71.648 140.453 72.519 140.25 73.355C143.324 76.2105 145.25 80.2847 145.25 84.812C145.25 87.1362 144.738 89.3432 143.828 91.3276C146.66 94.6088 148.375 98.8862 148.375 103.562C148.375 113.39 140.813 121.453 131.187 122.246V142.625H146.812C147.675 142.625 148.375 143.324 148.375 144.187C148.375 145.05 147.675 145.75 146.812 145.75H56.187C55.3237 145.75 54.6245 145.05 54.6245 144.187C54.6245 143.324 55.3237 142.625 56.187 142.625H71.812V122.246C62.187 121.453 54.624 113.39 54.624 103.562C54.624 98.8858 56.3388 94.6085 59.1709 91.3276C58.2608 89.3432 57.749 87.1362 57.749 84.812C57.749 80.2847 59.6748 76.2104 62.749 73.355C62.5459 72.5191 62.4365 71.648 62.4365 70.7495C62.4365 64.7104 67.3349 59.8115 73.3745 59.8115C79.4141 59.8115 84.3125 64.7099 84.3125 70.7495C84.3125 70.7886 84.3086 70.8316 84.3086 70.8706C85.2031 69.4526 86.2656 68.1558 87.4727 67.0034C87.4532 66.6909 87.4376 66.3784 87.4376 66.062C87.4376 58.2964 93.7344 52 101.499 52ZM86.8005 116.637C83.738 119.785 79.5778 121.864 74.9375 122.246V142.625H99.9375V122.254C94.8945 121.899 90.3242 119.836 86.8005 116.637ZM116.195 116.641C112.672 119.836 108.106 121.899 103.062 122.254V142.625H128.062V122.246C123.422 121.863 119.262 119.789 116.195 116.641ZM101.5 55.1249C95.4614 55.1249 90.5625 60.0233 90.5625 66.0629C90.5625 66.2856 90.5742 66.5277 90.5898 66.7973L90.6875 68.2543L89.6328 69.266C86.3516 72.3988 84.3125 76.8012 84.3125 81.688C84.3125 83.9732 84.7578 86.1489 85.5625 88.1333L86.1406 89.5669L85.3515 90.8989C83.6992 93.6919 82.7499 96.9497 82.7499 100.438C82.7499 110.266 90.3124 118.329 99.9379 119.122V112.024L92.5824 104.669C91.9731 104.059 91.9731 103.067 92.5824 102.458C93.1918 101.849 94.184 101.849 94.7933 102.458L99.9378 107.602V87.0244L92.5823 79.6689C91.973 79.0595 91.973 78.0673 92.5823 77.458C93.1917 76.8487 94.1839 76.8486 94.7932 77.458L99.9377 82.6025V73.8759C99.9377 73.0126 100.637 72.3134 101.5 72.3134C102.364 72.3134 103.063 73.0126 103.063 73.8759V95.1029L109.77 88.3959C110.379 87.7865 111.371 87.7865 111.981 88.3959C112.59 89.0053 112.59 89.9975 111.981 90.6068L103.063 99.5248V119.123C112.688 118.33 120.251 110.267 120.251 100.439C120.251 96.9505 119.301 93.6927 117.645 90.8997L116.856 89.5677L117.438 88.1341C118.243 86.1458 118.688 83.9739 118.688 81.6888C118.688 76.8021 116.649 72.3997 113.368 69.2668L112.313 68.2551L112.411 66.7981L112.43 66.4114C112.434 66.2903 112.438 66.177 112.438 66.0637C112.438 60.0246 107.54 55.1249 101.5 55.1249ZM73.3755 62.9374C69.0591 62.9374 65.563 66.4335 65.563 70.7499C65.563 71.3905 65.6411 72.0155 65.7856 72.6132L66.2231 74.3984L64.8793 75.6484C62.4105 77.9336 60.8754 81.1914 60.8754 84.8125C60.8754 86.6758 61.2856 88.4336 62.0121 90.0234L62.852 91.8476L61.5395 93.3671C59.1762 96.1093 57.7504 99.664 57.7504 103.562C57.7504 111.664 63.9184 118.324 71.8124 119.109V115.148L64.4569 107.793C63.8475 107.183 63.8475 106.191 64.4569 105.582C65.0663 104.973 66.0585 104.972 66.6678 105.582L71.8123 110.726V99.5233L64.4568 92.1678C63.8474 91.5584 63.8474 90.5662 64.4568 89.9569C65.0662 89.3476 66.0584 89.3475 66.6677 89.9569L71.8122 95.1014V89.4998C71.8122 88.6365 72.5114 87.9373 73.3747 87.9373C74.238 87.9373 74.9372 88.6365 74.9372 89.4998V102.914L79.7458 98.1052C80.0856 94.9177 81.1091 91.9333 82.6638 89.3044C81.7107 86.9528 81.1872 84.3825 81.1872 81.6872C81.1872 79.6481 81.488 77.6794 82.0466 75.82C81.988 75.7653 81.9333 75.7028 81.8708 75.6481L80.5231 74.3981L80.9606 72.6129C81.109 72.0114 81.1871 71.3863 81.1871 70.7496C81.1871 66.4332 77.6919 62.9374 73.3755 62.9374ZM74.938 107.335V119.108C78.7427 118.729 82.1411 116.987 84.645 114.378C81.9302 111.101 80.1528 107.019 79.727 102.542L74.938 107.335ZM123.274 102.542C122.844 107.019 121.067 111.101 118.352 114.382C120.86 116.992 124.258 118.73 128.063 119.109V107.336L123.274 102.542ZM129.626 62.9374C125.309 62.9374 121.813 66.4335 121.813 70.7499C121.813 71.3866 121.891 72.0116 122.04 72.6132L122.477 74.3984L121.129 75.6484C121.067 75.7031 121.012 75.7656 120.95 75.8203C121.512 77.6797 121.813 79.6484 121.813 81.6875C121.813 84.3828 121.286 86.9531 120.333 89.3047C121.891 91.9336 122.915 94.918 123.251 98.1055L128.063 102.914V89.5001C128.063 88.6368 128.762 87.9376 129.626 87.9376C130.489 87.9376 131.188 88.6368 131.188 89.5001V95.1017L136.333 89.9572C136.942 89.3478 137.934 89.3478 138.543 89.9572C139.153 90.5666 139.153 91.5588 138.543 92.1681L131.188 99.5236V110.727L136.332 105.582C136.942 104.973 137.934 104.973 138.543 105.582C139.153 106.191 139.153 107.184 138.543 107.793L131.188 115.148V119.109C139.082 118.324 145.25 111.664 145.25 103.562C145.25 99.664 143.824 96.1093 141.461 93.3674L140.148 91.8479L140.988 90.0237C141.715 88.4339 142.125 86.676 142.125 84.8128C142.125 81.1917 140.59 77.9339 138.121 75.6487L136.777 74.3987L137.215 72.6135C137.359 72.0158 137.437 71.3908 137.437 70.7502C137.437 66.4338 133.942 62.9374 129.626 62.9374Z" fill="#F2B034"/>
</svg>
