<svg width="97" height="97" viewBox="0 0 97 97" fill="none" xmlns="http://www.w3.org/2000/svg">
<path d="M55.6882 2.84713L55.5562 4.19949L53.841 6.17855L53.1127 7.92673L52.1918 8.75134L50.0148 8.22359L48.7614 8.78432L47.2112 7.7618L46.1227 8.09165L44.9352 7.89374L44.4075 8.42149L45.1991 9.50998L43.286 9.21312L42.7912 9.44401L41.9666 8.98223L41.274 9.34506L41.0431 9.93878L40.3504 9.77385L39.7897 10.0707L39.8886 10.3676L39.1959 10.1367L38.6352 10.5325L38.7672 11.1262L37.2169 10.7964L35.6666 9.37804L35.7656 8.42149L35.3038 8.02568L35.0729 6.80526L35.6006 5.71677L35.3368 5.12305L36.2603 4.43038L35.7326 3.63875L35.7986 3.14399L34.6441 2.9131L35.2708 1.79163L34.5122 1L33.2588 1.13194L33.7535 2.02252L32.9289 2.58325L32.698 3.111L31.8734 2.88011L31.1148 3.63875L29.8284 4.03457L29.1357 3.77069L28.3441 4.03457L28.2781 5.09007L27.7668 5.28797L27.1566 4.41389L26.6949 4.36441L26.4805 4.62828L26.1671 4.23247L25.425 4.49635L24.9266 3.8349L24.087 3.97485L23.3639 3.57835L24.3202 4.86114L24.9499 5.16434L24.7867 6.33052L25.4397 7.4034L25.1365 8.10311L26.2094 8.1964L26.7925 8.05646L26.6992 8.77949L25.7896 9.19931L25.1365 8.9894L25.2298 9.99231L24.6234 10.5987L24.3202 10.2955L23.6205 10.9252L23.2706 10.9952L22.6176 11.1818L22.3377 11.7649L21.9412 11.7416L21.638 12.4413L21.5913 11.5317L21.17 11.3901L19.8671 12.1487L18.4323 10.9613L17.888 11.2582L17.7561 11.0438L17.855 9.52647L17.2943 9.4605L17.1459 8.58641L16.4697 9.18013L16.0409 8.98223L15.711 9.62542L15.1008 9.11416L14.9854 9.83982L11.0767 9.77385L11.1427 11.2911L12.4291 11.3241L12.726 11.8849L12.6765 12.2312L12.4456 12.594L11.8684 12.0993L10.582 12.561L10.6314 14.6555L11.7694 15.3812L11.7034 15.876L12.1487 16.6181L10.7964 24.4849L10.1367 24.5344L9.8893 24.2045L8.76783 24.221L8.33903 24.6828L7.21756 24.8312L6.80526 25.0126L6.294 24.8807L5.56834 25.5734L5.15604 25.6229L3.82017 26.4805L3.50682 27.2721L3.47383 27.9153L2.79765 28.8388L3.16048 29.8284L2.41833 30.1087L1.6432 30.719L1.49477 31.3951L1.65969 31.7745L1.14843 31.9064L1 32.5001L1.61021 32.9784L2.00602 33.9679L2.30288 34.4627L2.74817 34.8255L3.29242 35.4852L3.63875 36.0624L2.94608 36.8705L4.13352 37.019L4.89216 37.0685L5.40342 37.7611L5.56834 38.4373L7.61337 38.3548L9.39453 36.986L9.34506 37.8766L9.18013 38.0745L9.22961 40.6473L9.83982 40.9276L11.0438 40.5483L11.489 40.6638L12.5775 40.6308L13.6 40.8287L14.0948 41.142L14.9359 40.6967L15.4472 39.9381L15.9749 39.8556L16.2503 40.0097L16.7167 39.5665L17.2532 39.1467L18.0228 38.9368L19.0024 38.0971L19.7021 37.8639L20.6351 37.7473L21.498 37.8172L21.9412 37.6073L22.1977 37.9105L22.0811 38.377L22.1278 38.9834L21.8246 39.5199L22.2677 40.6627L22.0345 41.1992L22.2444 42.1321L22.8042 42.8085L23.0607 43.2283L23.7371 43.5782L24.1103 43.9047L24.1802 44.1846L24.88 44.4411L25.5797 44.4644L25.9762 44.2779L26.8391 44.8143L27.5388 44.7676L27.9587 45.3274L28.9382 45.7939L29.8012 45.8872L30.7108 46.9834H31.7837L32.6467 46.8668L34.0461 47.7531L33.9994 48.2195V48.5694L34.3726 49.6189L34.3959 50.7385L33.7196 50.7618L34.5359 51.5781L34.6525 53.514L39.1773 53.7239L38.9907 54.307L38.7341 55.0067L39.1306 56.0329L39.9469 56.6393L40.53 56.616L41.1598 58.3419L40.5533 59.9279L40.6933 60.2545L40.3901 60.4644L39.6204 62.0737L40.2968 62.6568L39.5738 63.0999L39.7837 63.683L40.2035 64.6859L40.2968 65.7588L40.0869 66.6917L40.0402 67.8346L40.7633 67.8113L41.8128 68.0678L42.839 68.1145L43.5154 67.9512L43.6787 67.7413L44.3784 68.2078H45.1481L45.4746 68.6976L45.7545 69.234L45.6612 69.7471L45.8594 70.4935L45.9877 71.0882L45.8828 71.3564L46.151 71.7879L46.2909 72.406L47.2822 72.371L48.1102 71.9862L48.5999 72.1611L48.8798 72.7326L48.9498 73.339L48.8798 73.8288L48.6583 74.5285L48.4833 75.3331L48.1801 75.9162L48.6699 76.476L49.4376 76.1385L50.0148 76.4354L49.9654 77.2105L50.5096 77.7053L50.3117 78.4474L50.1962 79.1236L50.4931 79.4699L50.0808 80.0637L49.2232 80.4925L47.6235 81.1522L47.2441 81.6139L46.4195 82.0262L46.0237 82.4385L45.6444 82.587L45.0342 83.2137L44.5724 83.7249L44.0117 84.3351L43.4839 84.8299L43.2695 84.9619L43.0881 85.3907L42.7253 85.8524L42.1316 86.4956H41.6038L41.5378 87.0069L40.9111 87.4192L41.2245 87.6171L41.9172 87.6996L42.181 87.2378H42.7253L43.8138 88.0954L44.7868 89.1014L44.8693 89.6951L45.8753 89.1344L46.7659 90.0909L47.3266 90.2394L47.7224 90.6022H48.2832L48.613 91.0475L49.2892 91.6082L49.685 91.6577L50.4271 92.202L50.6415 93.1255L51.7465 93.5873L51.4497 94.0821L50.8394 94.6923V95.8797L51.2682 96.2096L52.9669 94.7418L53.4452 93.8182L53.8905 92.4658L54.9789 91.5896L56.1218 91.0882L57.1713 90.0853L58.6524 88.1261L59.5154 85.957L60.9847 84.5109L62.3142 83.6247L62.8128 82.1087L63.0022 80.9308L62.734 79.5314L62.5707 78.8317L63.0437 77.8043L62.6479 77.227L63.2581 76.287L64.1981 75.5448L64.6232 74.6684L66.769 73.409L66.9089 72.9891L68.1917 72.3594L68.6815 72.3827L68.8681 71.9629L69.4745 71.8696L70.1742 71.9396L70.8039 72.0562L70.7573 71.5664L71.7835 70.8434L72.6232 70.82L72.6465 70.0737L73.113 69.9338L73.7893 70.3769L74.0925 69.8871L74.4424 69.8171L75.1421 70.1203L75.9118 69.9338L76.8447 69.8638L78.7339 69.9104L79.0371 69.4206L78.9205 68.8609L79.5269 68.3011L81.2295 67.6481L81.3695 67.2749L81.1129 66.3186L81.626 65.5256L81.766 64.8726L82.5356 64.4527L82.9088 63.893L83.3053 62.8901L83.5852 62.1437L84.2383 61.7006L84.5415 60.9542L84.2732 60.0213L84.4365 58.9367L84.8797 57.9222L85.3111 57.5023L85.9059 57.0359L85.5677 55.963L85.8942 54.5169L86.2674 53.1758L86.5939 52.6044L86.2441 51.858V50.9251L86.0458 49.8989L86.1624 48.8493L86.3141 47.8581L86.1041 47.4965L86.3374 47.1L86.3491 46.7385L86.1158 46.377L87.1304 45.4907L87.5969 45.584L88.5998 44.6511L89.4628 43.205L90.1625 41.8056L91.0954 40.4995L91.7485 39.8698L92.4715 39.5432L92.7514 39.2867L92.7709 38.9898L93.4744 38.3537L94.1974 37.4441L95.3169 36.1847L96.0866 34.2255L96.3432 33.3159L96.4131 31.1701L95.7134 29.1876L95.3636 27.8348L94.8505 26.4821L93.5443 26.2722L92.075 26.3655L91.2353 25.9456H90.5823L90.2557 25.4092L89.4394 25.1293L87.5502 23.2168L86.8272 22.8203L85.731 22.0506L84.1683 21.2343L83.2354 20.7678L81.4395 21.0244L79.6902 21.0943L79.1071 20.5103L78.2 20.4938L77.227 20.4114L77.0456 20.164L75.8746 19.7187L75.2149 19.6692L74.8851 19.3394L74.1429 20.164L73.7471 19.8671L73.0874 20.0485L72.9225 19.2074L72.3618 18.1355L71.6691 17.2449L70.828 17.8386L69.9209 17.014L67.8924 16.2883L65.8144 15.4637L65.2866 15.5957L64.8413 15.3153L64.1981 15.6286L63.0932 15.1339L63.2746 14.6556L62.3842 14.5871L61.5445 14.3072L60.7982 13.9574L60.285 13.1644L59.3987 13.1877L59.3288 12.6512L59.1189 12.1381L59.562 11.4151L59.7253 10.6687L59.6553 9.78245L58.839 9.57254L58.3492 8.59295L57.6961 8.70956L57.3696 7.7533L56.9498 6.63378L56.7399 5.35098L56.6466 4.2781L55.6882 2.84713Z" stroke="#F2B034" stroke-linecap="round" stroke-linejoin="round"/>
<path d="M34.5121 1.00024L33.2588 1.13213L33.7536 2.02283L32.929 2.58343L32.698 3.11124L31.8733 2.88024L31.1148 3.63905L29.8284 4.03472L29.1357 3.77094L28.3441 4.03472L28.278 5.09035L27.767 5.28831L27.1566 4.41413L26.6948 4.36457L26.4803 4.62861L26.167 4.23268L25.425 4.49646L24.9266 3.83521L24.087 3.9751L23.3638 3.57866L24.3201 4.86141L24.9498 5.16468L24.7867 6.33077L25.4397 7.40369L25.1364 8.1034L26.2093 8.19657L26.7924 8.05668L26.6992 8.77962L25.7897 9.19954L25.1364 8.98971L25.2299 9.99243L24.6233 10.599L24.3201 10.2957L23.6206 10.9255L23.2706 10.9954L22.6176 11.182L22.3376 11.7651L21.9412 11.7418L21.6379 12.4415L21.5914 11.532L21.17 11.3903L19.8671 12.1488L18.4323 10.9616L17.888 11.2584L17.7561 11.0439L17.8549 9.52682L17.2943 9.46074L17.1459 8.58656L16.4697 9.18044L16.041 8.98248L15.7111 9.62567L15.1007 9.11437L14.9854 9.84015L11.0767 9.77407L11.1428 11.2914L12.4292 11.3242L12.726 11.8851L12.6764 12.2314L12.4457 12.5943L11.8683 12.0995L10.5819 12.5613L10.6315 14.6558L11.7695 15.3815L11.7034 15.8763L12.1486 16.6184L10.7964 24.4852L10.1367 24.5345L9.8892 24.2047L8.76776 24.2212L8.33906 24.6829L7.21761 24.8313L6.80517 25.0128L6.29388 24.8809L5.56836 25.5736L5.15592 25.6232L3.82025 26.4806L3.50692 27.2722L3.47388 27.9156L2.79766 28.8391L3.16055 29.8287L2.41826 30.1089L1.64318 30.7191L1.49478 31.3953L1.6597 31.7747L1.14841 31.9066L1 32.5002L1.61015 32.9785L2.00607 33.9681L2.30289 34.4628L2.74811 34.8257L3.29244 35.4854L3.63881 36.0625L2.94607 36.8709L4.13358 37.0193L4.89214 37.0686L5.40343 37.7613L5.56836 38.4376L7.61328 38.355L9.39442 36.9863L9.34513 37.8767L9.1802 38.0747L9.2295 40.6474L9.8399 40.928L11.0437 40.5486L11.4892 40.6639L12.5776 40.6309L13.6002 40.8288L14.0949 41.1422L14.9358 40.697L15.4471 39.9384L15.9749 39.8558L16.2503 40.0099L16.7167 39.5667L17.253 39.1468L18.0229 38.937L19.0024 38.0974L19.7021 37.8641L20.6352 37.7474L21.498 37.8173L21.9412 37.6075L22.1977 37.9108L22.081 38.3772L22.1278 38.9837L21.8245 39.52L22.2676 40.6629L22.0346 41.1995L22.2444 42.1323L22.8042 42.8087L23.0608 43.2284L23.737 43.5784L24.1102 43.9049L24.1802 44.1847L24.8799 44.4415L25.5796 44.4647L25.9763 44.2781L26.8391 44.8144L27.5388 44.768L27.9587 45.3275L28.9382 45.7942L29.8013 45.8873L30.7108 46.9835H31.7838L32.6466 46.8671L34.046 47.7534L33.9995 48.2198V48.5695L34.3725 49.6192L34.396 50.7386L33.7195 50.7621L34.5359 51.5784L34.6525 53.5142L39.1773 53.724L38.9907 54.307L38.7341 55.0067L39.1306 56.0332L39.9469 56.6395L40.53 56.6163L40.7158 57.1257L41.8595 57.3624L42.9089 56.1032L43.6086 56.2663L44.5184 55.7065L46.944 56.9895L48.3901 56.5228L49.4863 56.8261L50.2559 55.9633V56.9895L49.8595 57.6657L51.0024 57.8758L51.8185 57.7124L51.4455 56.7329L51.6554 55.8698L52.2851 54.8904L53.1126 54.1906V53.421L53.9643 52.7677L54.9206 52.3246L55.4337 51.1118L55.7602 50.5522L56.5533 50.3189L56.9498 49.4558L57.2295 48.243L57.323 47.1236L57.976 46.0739L58.0227 45.5376L61.5911 45.5841L66.3957 45.6543L68.798 45.6308L68.5183 44.768L68.4948 44.0215L67.9817 43.1352L68.938 42.2721L67.6085 41.7126L68.0516 40.7796L68.6814 40.0566L69.6844 39.5667L70.0344 38.7504L69.4978 37.9108L69.6377 36.8146L69.218 35.7185L70.1043 33.8524L70.5939 32.7096L71.3171 32.2664L72.7165 31.6834L73.766 30.797L74.1159 29.8176L73.9058 27.4851L74.046 23.9166L73.9993 21.9109L74.0553 20.0983L73.7471 19.8673L73.0874 20.0487L72.9225 19.2076L72.3619 18.1357L71.6692 17.245L70.828 17.8389L69.9211 17.0143L67.8924 16.2885L65.8144 15.4639L65.2866 15.5958L64.8414 15.3155L64.1982 15.6288L63.0933 15.134L63.2745 14.6558L62.384 14.5874L61.5444 14.3073L60.7983 13.9576L60.2849 13.1645L59.3989 13.188L59.3287 12.6514L59.1188 12.1383L59.562 11.4153L59.7254 10.6689L59.6554 9.78259L58.839 9.57276L58.3492 8.59327L57.6962 8.70967L57.3697 7.75341L56.9498 6.63404L56.7399 5.35128L56.6465 4.27836L55.6882 2.84746L55.5563 4.19964L53.841 6.17875L53.1126 7.92685L52.1917 8.75148L50.0149 8.22393L48.7616 8.78452L47.2112 7.76193L46.1227 8.09178L44.9352 7.89408L44.4074 8.42163L45.199 9.51029L43.286 9.21322L42.7912 9.44422L41.9666 8.98248L41.2741 9.34537L41.0431 9.939L40.3504 9.77407L39.7898 10.0709L39.8886 10.3677L39.1959 10.137L38.6353 10.5326L38.7672 11.1265L37.2168 10.7967L35.6666 9.37815L35.7655 8.42163L35.3037 8.02596L35.073 6.80541L35.6006 5.71701L35.3368 5.12338L36.2603 4.43064L35.7327 3.63905L35.7985 3.14427L34.644 2.91327L35.2707 1.79183L34.5121 1.00024Z" fill="#F2B034"/>
</svg>
