<svg width="201" height="200" viewBox="0 0 201 200" fill="none" xmlns="http://www.w3.org/2000/svg">
<circle cx="100.5" cy="100" r="100" fill="#18443C"/>
<path fill-rule="evenodd" clip-rule="evenodd" d="M92.6967 62.8352C87.2467 63.8479 82.2103 66.0555 77.8503 69.1772C74.6931 66.9848 72.0995 64.7583 70.2202 62.4748C68.9799 60.9538 67.2136 60.0359 65.3343 59.9297C63.4174 59.8197 61.5376 60.5403 60.1845 61.9059V61.9097C60.0718 62.0083 59.9968 62.1183 59.9216 62.2434C58.0423 64.4093 57.8921 67.6221 59.5835 69.9852C59.5835 69.9966 59.5835 70.0041 59.5835 70.0155C61.9138 73.1297 64.8828 76.0124 68.6414 78.5917C65.6345 83.0221 63.5297 88.1428 62.5901 93.6655C58.6811 94.4052 55.186 94.6517 52.1791 94.3597C50.3374 94.1397 48.5329 94.7086 47.1798 95.9186C45.7891 97.1362 45 98.8924 45 100.736C45 100.907 45.0376 101.077 45.0376 101.248C45.1504 104.267 47.4053 106.835 50.4122 107.309L50.4498 107.313C54.2084 107.837 58.2678 107.749 62.703 106.881C63.6802 112.384 65.8604 117.471 68.98 121.86C66.6873 125.217 64.3946 127.898 62.0267 129.859C60.5984 130.99 59.6962 132.655 59.5835 134.457C59.4707 136.27 60.1472 138.045 61.4252 139.334C61.5755 139.486 61.7258 139.63 61.8762 139.759C64.0562 141.827 67.4013 142.058 69.8444 140.271C69.8444 140.264 69.8444 140.26 69.8444 140.252C72.9265 137.916 75.7455 134.938 78.3013 131.138C82.6989 134.195 87.7729 136.33 93.2229 137.263C93.9747 141.277 94.238 144.842 93.8997 147.926C93.7118 149.731 94.2381 151.518 95.4032 152.864C96.5684 154.222 98.2973 155 100.064 155L100.778 154.966C103.747 154.901 106.265 152.698 106.754 149.72C106.754 149.709 106.754 149.697 106.754 149.686C107.28 145.832 107.205 141.682 106.34 137.165C111.79 136.152 116.827 133.944 121.187 130.823C124.57 133.167 127.276 135.553 129.231 137.988C130.321 139.399 131.899 140.264 133.628 140.385C135.395 140.503 137.086 139.858 138.326 138.61L139.003 137.893L138.966 137.939C140.995 135.83 141.258 132.533 139.567 130.129C139.529 130.121 139.529 130.113 139.529 130.102C137.199 126.942 134.192 124.018 130.358 121.408C133.403 116.978 135.507 111.857 136.447 106.334C140.394 105.587 143.927 105.341 146.971 105.644C148.776 105.868 150.542 105.314 151.895 104.123C153.248 102.924 154 101.195 154 99.3779C154 99.1579 154 98.9417 153.962 98.7293C153.925 95.7366 151.707 93.1838 148.738 92.7059C148.7 92.7059 148.7 92.7021 148.7 92.7021C144.904 92.1634 140.807 92.2431 136.334 93.1193C135.319 87.6155 133.14 82.529 130.058 78.1403C132.238 74.939 134.418 72.3483 136.71 70.429C138.214 69.2 139.116 67.4172 139.228 65.4979C139.341 63.5672 138.627 61.6783 137.274 60.3128V60.309C137.161 60.2066 137.048 60.1193 136.936 60.0434C134.793 58.1469 131.598 57.9762 129.268 59.6869C129.23 59.6945 129.231 59.6983 129.231 59.7059C126.149 62.0462 123.292 65.039 120.736 68.8624C116.339 65.8052 111.264 63.6697 105.777 62.7366C105.1 58.9283 104.837 55.5259 105.1 52.5559C105.288 50.61 104.687 48.7021 103.409 47.2683C102.131 45.8269 100.327 45 98.4099 45C98.2595 45 98.1092 45.0152 97.9588 45.0455C95.1399 45.239 92.7719 47.3897 92.2833 50.2724C92.2833 50.2838 92.2833 50.2952 92.2833 50.3066C91.7571 54.1603 91.8322 58.3138 92.6967 62.8352ZM102.619 137.666C101.567 137.749 100.552 137.791 99.5 137.791C98.7107 137.791 97.9214 137.768 97.132 137.719C97.8086 141.694 97.959 145.248 97.6583 148.358C97.6583 148.373 97.6583 148.392 97.6583 148.411C97.5456 149.117 97.7712 149.83 98.2222 150.365C98.7108 150.9 99.3873 151.207 100.064 151.207C100.139 151.207 100.252 151.214 100.327 151.203C100.402 151.184 100.515 151.177 100.627 151.177C101.83 151.177 102.845 150.308 103.033 149.132C103.522 145.604 103.409 141.808 102.619 137.666ZM71.4232 124.962C69.0929 128.228 66.7625 130.857 64.357 132.826C64.357 132.837 64.3194 132.848 64.3194 132.86C63.7556 133.303 63.3797 133.975 63.3421 134.699C63.3045 135.428 63.5674 136.137 64.0936 136.653L64.1689 136.729C64.244 136.793 64.319 136.865 64.4318 136.949C65.2587 137.813 66.6121 137.923 67.627 137.21C70.4083 135.071 73.0015 132.329 75.2942 128.828C73.9036 127.637 72.626 126.347 71.4232 124.962ZM128.065 124.428C126.9 125.831 125.622 127.147 124.269 128.365C127.577 130.747 130.208 133.178 132.2 135.644C132.2 135.659 132.2 135.674 132.2 135.686C132.613 136.22 133.215 136.554 133.891 136.6C134.568 136.645 135.207 136.399 135.696 135.924C135.846 135.769 135.996 135.613 136.109 135.447C136.147 135.393 136.222 135.344 136.259 135.299C137.049 134.51 137.124 133.262 136.485 132.351C134.38 129.461 131.599 126.802 128.065 124.428ZM99.5 66.0024C118.105 66.0024 133.215 81.2355 133.215 100C133.215 118.764 118.105 133.998 99.5 133.998C80.9324 133.998 65.8224 118.764 65.8224 100C65.8224 81.2355 80.9324 66.0024 99.5 66.0024ZM96.23 108.102C91.9076 108.102 88.4118 111.637 88.4118 115.984C88.4118 120.335 91.9076 123.87 96.23 123.87C100.515 123.87 104.048 120.335 104.048 115.984C104.048 111.637 100.515 108.102 96.23 108.102ZM96.23 111.895C98.4476 111.895 100.289 113.727 100.289 115.984C100.289 118.245 98.4476 120.077 96.23 120.077C93.9748 120.077 92.1704 118.245 92.1704 115.984C92.1704 113.727 93.9748 111.895 96.23 111.895ZM115.474 91.8221C111.152 91.8221 107.656 95.3534 107.656 99.7041C107.656 104.055 111.152 107.59 115.474 107.59C119.759 107.59 123.292 104.055 123.292 99.7041C123.292 95.3534 119.759 91.8221 115.474 91.8221ZM62.1391 97.599C58.2677 98.2514 54.8097 98.4297 51.7652 98.13C51.7277 98.13 51.728 98.1262 51.6905 98.1262C50.9763 98.0314 50.2244 98.2628 49.6607 98.7634C49.1344 99.2452 48.7962 99.9317 48.7586 100.633C48.7962 100.751 48.7962 100.869 48.7962 100.99C48.7962 102.268 49.7357 103.357 50.9761 103.558C54.434 104.032 58.155 103.933 62.1767 103.114C62.1015 102.09 62.0638 101.051 62.0638 100C62.0638 99.1921 62.1015 98.3917 62.1391 97.599ZM115.474 95.6152C117.692 95.6152 119.533 97.4472 119.533 99.7041C119.533 101.961 117.692 103.797 115.474 103.797C113.219 103.797 111.415 101.961 111.415 99.7041C111.415 97.4472 113.219 95.6152 115.474 95.6152ZM136.898 102.401C140.807 101.741 144.303 101.563 147.385 101.878L147.422 101.881C148.137 101.976 148.851 101.752 149.415 101.274C149.941 100.793 150.241 100.102 150.241 99.3779V99.2603C150.241 99.1466 150.204 99.0328 150.204 98.919C150.204 97.6938 149.339 96.6545 148.136 96.4572C144.678 95.9641 140.92 96.059 136.823 96.8859C136.936 97.91 136.973 98.9493 136.973 100C136.973 100.808 136.936 101.608 136.898 102.401ZM88.6752 78.8079C83.0372 78.8079 78.4142 83.4469 78.4142 89.1669C78.4142 94.8831 83.0372 99.5259 88.6752 99.5259C94.3507 99.5259 98.9361 94.8831 98.9361 89.1669C98.9361 83.4469 94.3507 78.8079 88.6752 78.8079ZM88.6752 82.601C92.2834 82.601 95.1775 85.5407 95.1775 89.1669C95.1775 92.7893 92.2834 95.7328 88.6752 95.7328C85.1045 95.7328 82.1728 92.7893 82.1728 89.1669C82.1728 85.5407 85.1045 82.601 88.6752 82.601ZM74.768 71.6352C71.7235 69.4238 69.2053 67.1707 67.2884 64.8759C67.2884 64.8645 67.2884 64.8531 67.2884 64.8417C66.7246 64.1741 65.973 63.7645 65.1085 63.7152C64.3568 63.6734 63.6049 63.9238 63.0411 64.4093C62.9659 64.4814 62.9286 64.5497 62.8534 64.6179C62.0266 65.46 61.9135 66.7876 62.5901 67.7548C64.7325 70.6034 67.4766 73.2283 70.9346 75.5724C72.1373 74.169 73.4149 72.8528 74.768 71.6352ZM127.614 75.0376C129.832 71.9386 132.05 69.4124 134.305 67.4931C134.342 67.4817 134.342 67.4741 134.342 67.4628C135.019 66.9279 135.432 66.139 135.47 65.2817C135.507 64.5231 135.245 63.7759 134.794 63.1917C134.718 63.1386 134.643 63.0779 134.568 63.0097C133.741 62.1676 132.426 62.0614 131.448 62.7517C128.629 64.8948 126.036 67.6486 123.705 71.1724C125.096 72.3634 126.412 73.6531 127.614 75.0376ZM101.906 62.2814C101.267 58.5338 101.079 55.1579 101.342 52.1766C101.342 52.1614 101.342 52.1462 101.342 52.131C101.454 51.2814 101.191 50.4317 100.627 49.7945C100.101 49.2255 99.4249 48.8766 98.6732 48.8045C98.5605 48.8197 98.485 48.8234 98.4099 48.8234C97.2071 48.8234 96.1922 49.6883 96.0043 50.8603C95.5157 54.3879 95.5908 58.1886 96.4177 62.3345C97.4325 62.251 98.4852 62.2093 99.5 62.2093C100.327 62.2093 101.116 62.2321 101.906 62.2814Z" fill="#F2B034"/>
</svg>
