<svg width="113" height="111" viewBox="0 0 113 111" fill="none" xmlns="http://www.w3.org/2000/svg">
<path d="M60.408 0.982923C67.6739 0.977569 74.8398 2.6759 81.3305 5.94151C87.8213 9.20712 93.4559 13.9491 97.7821 19.7867C102.108 25.6243 105.006 32.3949 106.241 39.555C107.477 46.7151 107.017 54.0651 104.897 61.0151L60.4422 47.4592L60.408 0.982923Z" fill="#0D3831"/>
<mask id="mask0_676_411" style="mask-type:alpha" maskUnits="userSpaceOnUse" x="0" y="1" width="113" height="110">
<rect width="113" height="110" transform="matrix(1 0 0 -1 0 111)" fill="#D9D9D9"/>
</mask>
<g mask="url(#mask0_676_411)">
<path d="M60.4072 0.98291C46.2427 0.983027 32.6586 6.60993 22.6429 16.6257C12.6271 26.6415 7.00011 40.2257 7 54.3902L7 153.328H60.4072V54.3902V0.98291Z" fill="#F2B034"/>
</g>
<path d="M36.8574 52.9785C29.3771 52.9785 23.313 46.9145 23.313 39.4341C23.313 31.9537 29.3771 25.8896 36.8574 25.8896C44.3378 25.8896 50.4019 31.9537 50.4019 39.4341C50.4019 46.9145 44.3378 52.9785 36.8574 52.9785Z" fill="white"/>
<path d="M90.1128 56.5021C88.1729 62.8672 84.2377 68.4396 78.888 72.3967C73.5384 76.3537 67.0581 78.4854 60.4041 78.4772L60.4424 47.4592L90.1128 56.5021Z" fill="#C48D65"/>
<path d="M36.8576 47.0184C32.669 47.0184 29.2734 43.6228 29.2734 39.4341C29.2734 35.2454 32.669 31.8499 36.8576 31.8499C41.0463 31.8499 44.4419 35.2454 44.4419 39.4341C44.4419 43.6228 41.0463 47.0184 36.8576 47.0184Z" fill="#0D3831" stroke="#0D3831" stroke-width="2.13184" stroke-linecap="round" stroke-linejoin="round"/>
<circle cx="38.5" cy="34.828" r="2.5" fill="white"/>
</svg>
