<svg width="97" height="97" viewBox="0 0 97 97" fill="none" xmlns="http://www.w3.org/2000/svg">
<circle cx="48.5" cy="48.5" r="48" stroke="#F2B034"/>
<mask id="path-2-inside-1_217_1082" fill="white">
<path d="M48.5 0C55.8545 8.77014e-08 63.1127 1.67257 69.7255 4.89117C76.3382 8.10978 82.1325 12.7901 86.6698 18.5781C91.2071 24.3662 94.3687 31.1103 95.9154 38.3003C97.462 45.4903 97.3533 52.9379 95.5974 60.0797C93.8414 67.2215 90.4843 73.8704 85.7799 79.5235C81.0756 85.1766 75.1472 89.6858 68.4432 92.7099C61.7393 95.7341 54.4353 97.194 47.084 96.9793C39.7326 96.7646 32.5264 94.8808 26.0104 91.4705L48.5 48.5V0Z"/>
</mask>
<path d="M48.5 0C55.8545 8.77014e-08 63.1127 1.67257 69.7255 4.89117C76.3382 8.10978 82.1325 12.7901 86.6698 18.5781C91.2071 24.3662 94.3687 31.1103 95.9154 38.3003C97.462 45.4903 97.3533 52.9379 95.5974 60.0797C93.8414 67.2215 90.4843 73.8704 85.7799 79.5235C81.0756 85.1766 75.1472 89.6858 68.4432 92.7099C61.7393 95.7341 54.4353 97.194 47.084 96.9793C39.7326 96.7646 32.5264 94.8808 26.0104 91.4705L48.5 48.5V0Z" fill="#F2B034" stroke="#2F5913" stroke-width="2" mask="url(#path-2-inside-1_217_1082)"/>
</svg>
