<svg width="20" height="40" viewBox="0 0 20 40" fill="none" xmlns="http://www.w3.org/2000/svg">
<path d="M9.51572 28.644C10.1306 28.644 10.629 29.1424 10.629 29.7573V36.2022L12.7391 34.3571C13.202 33.9531 13.9046 34 14.3095 34.4621C14.7144 34.925 14.6675 35.6281 14.2045 36.033L10.2489 39.4929C10.0376 39.6772 9.77666 39.768 9.51661 39.768H9.51572C9.25568 39.768 8.9943 39.6772 8.78343 39.4924L4.82958 36.0325C4.36664 35.6276 4.32012 34.9246 4.72503 34.4621C5.12905 33.9991 5.83255 33.9531 6.29549 34.3575L8.40333 36.2018V29.7569C8.40244 29.1424 8.90083 28.644 9.51572 28.644Z" fill="white"/>
<path d="M-0.000177383 19.8424V7.08681C-0.000177383 3.17903 3.17885 0 7.08619 0H11.946C15.8542 0 19.0337 3.17903 19.0337 7.08681V19.8424C19.0337 23.7501 15.8542 26.9296 11.946 26.9296H7.08619C3.17885 26.9296 -0.000177383 23.7501 -0.000177383 19.8424ZM2.22639 19.8424C2.22639 22.523 4.40643 24.7035 7.08663 24.7035H11.946C14.6266 24.7035 16.8076 22.523 16.8076 19.8424V7.08681C16.8076 4.40661 14.6266 2.22612 11.946 2.22612H7.08619C4.40599 2.22612 2.22594 4.40661 2.22594 7.08681L2.22639 19.8424Z" fill="white"/>
<path d="M9.51563 6.31244C10.1305 6.31244 10.6289 6.81082 10.6289 7.42572V10.7332C10.6289 11.3481 10.1305 11.8465 9.51563 11.8465C8.90073 11.8465 8.40234 11.3481 8.40234 10.7332V7.42572C8.40234 6.81082 8.90073 6.31244 9.51563 6.31244Z" fill="white"/>
</svg>
