<svg width="201" height="200" viewBox="0 0 201 200" fill="none" xmlns="http://www.w3.org/2000/svg">
<circle cx="100.5" cy="100" r="100" fill="#18443C"/>
<g clip-path="url(#clip0_427_533)">
<path d="M59.3381 51C58.2925 51 57.5257 51.837 57.5257 52.8833V145.303H48.9518C48.9518 145.303 48.8124 145.303 48.7427 145.303C47.6971 145.303 46.9303 146.21 47 147.256C47 148.302 47.9062 149.07 48.9518 149H152.188C153.233 149 154 148.163 154.07 147.186C154.07 146.14 153.233 145.373 152.257 145.303H143.753V82.3181C143.753 81.2719 142.917 80.5046 141.871 80.5046H112.873V52.8833C112.803 51.837 111.967 51 110.921 51H59.3381ZM61.1505 54.6968H109.109V145.303H93.9127V128.005C93.9127 126.959 93.0762 126.191 92.1003 126.191H78.2287C77.1831 126.191 76.3466 127.028 76.3466 128.005V145.303H61.1505V54.6968ZM68.4 61.3929C67.3544 61.3929 66.5876 62.2299 66.5876 63.2762V75.4128C66.5876 76.4591 67.4241 77.2263 68.4 77.2263H80.3199C81.3655 77.2263 82.1323 76.3893 82.1323 75.4128V63.2762C82.1323 62.2299 81.2958 61.3929 80.3199 61.3929H68.4ZM89.9394 61.3929C88.8938 61.3929 88.0573 62.2299 88.0573 63.2064V75.3431C88.0573 76.3893 88.8938 77.1566 89.9394 77.1566H101.859C102.905 77.1566 103.741 76.3196 103.741 75.3431V63.2064C103.741 62.1601 102.905 61.3231 101.929 61.3231H90.0091L89.9394 61.3929ZM70.2124 65.0897H78.4378V73.5295H70.2124V65.0897ZM91.7518 65.0897H99.9772V73.5295H91.7518V65.0897ZM68.4 82.9459C67.3544 82.9459 66.5876 83.7829 66.5876 84.8292V96.9658C66.5876 98.0121 67.4241 98.7794 68.4 98.7794H80.3199C81.3655 98.7794 82.1323 97.9423 82.1323 96.9658V84.8292C82.1323 83.7829 81.2958 82.9459 80.3199 82.9459H68.4ZM89.9394 82.9459C88.8938 82.9459 88.0573 83.7829 88.0573 84.7594V96.8961C88.0573 97.9423 88.8938 98.7096 89.9394 98.7096H101.859C102.905 98.7096 103.741 97.8726 103.741 96.8961V84.7594C103.741 83.7132 102.905 82.8762 101.929 82.8762H90.0091L89.9394 82.9459ZM112.803 84.1317H139.989V145.233H112.803V84.1317ZM70.2124 86.6427H78.4378V95.0826H70.2124V86.6427ZM91.7518 86.6427H99.9772V95.0826H91.7518V86.6427ZM120.401 95.9893C119.356 95.9893 118.519 96.8263 118.519 97.8028V109.939C118.519 110.986 119.356 111.753 120.401 111.753H132.321C133.367 111.753 134.134 110.916 134.134 109.939V97.8028C134.134 96.7566 133.297 95.9196 132.321 95.9196H120.401V95.9893ZM122.214 99.6861H130.439V108.126H122.214V99.6861ZM68.1909 104.499C67.215 104.569 66.5179 105.406 66.5179 106.312V118.449C66.5179 119.495 67.3544 120.332 68.3303 120.332H80.2502C81.2958 120.332 82.0625 119.495 82.0625 118.449V106.312C82.0625 105.266 81.2261 104.499 80.2502 104.499H68.3303C68.3303 104.499 68.1909 104.499 68.1212 104.499H68.1909ZM89.7303 104.499C88.7544 104.569 88.0573 105.406 88.0573 106.312V118.449C88.0573 119.495 88.8938 120.332 89.8697 120.332H101.79C102.835 120.332 103.672 119.495 103.672 118.519V106.382C103.672 105.336 102.835 104.569 101.79 104.569H89.8697C89.8697 104.569 89.7303 104.569 89.6606 104.569L89.7303 104.499ZM70.2124 108.196H78.4378V116.636H70.2124V108.196ZM91.7518 108.196H99.9772V116.636H91.7518V108.196ZM120.401 117.612C119.356 117.612 118.519 118.449 118.519 119.426V131.562C118.519 132.609 119.356 133.376 120.401 133.376H132.321C133.367 133.376 134.134 132.539 134.134 131.562V119.426C134.134 118.379 133.297 117.542 132.321 117.542H120.401V117.612ZM122.214 121.239H130.439V129.679H122.214V121.239ZM80.041 129.819H90.2182V145.303H80.041V129.819Z" fill="#F2B034"/>
</g>
<defs>
<clipPath id="clip0_427_533">
<rect width="107" height="98" fill="white" transform="translate(47 51)"/>
</clipPath>
</defs>
</svg>
